<svg width="34" height="34" viewBox="0 0 34 34" fill="none" xmlns="http://www.w3.org/2000/svg">
<path d="M16.9948 3.17981V16.9975H3.17712V6.33883C3.17712 4.59415 4.59146 3.17981 6.33614 3.17981H16.9948Z" fill="#CFE4FD"/>
<path d="M30.8126 6.33883V16.9975H16.9949V3.17981H27.6535C29.3982 3.17981 30.8126 4.59415 30.8126 6.33883Z" fill="#76B5F4"/>
<path d="M16.9948 16.9974V30.8266H6.33614C4.59146 30.8266 3.17712 29.4123 3.17712 27.6676V16.9974H16.9948Z" fill="#76B5F4"/>
<path d="M30.8126 16.9974V27.6676C30.8126 29.4123 29.3982 30.8266 27.6535 30.8266H16.9949V16.9974H30.8126Z" fill="#496D97"/>
<path d="M27.162 11.2066H20.6451C20.3268 11.2066 20.0693 10.9491 20.0693 10.6309C20.0693 10.3127 20.3268 10.0552 20.6451 10.0552H27.162C27.4803 10.0552 27.7378 10.3127 27.7378 10.6309C27.7378 10.9491 27.4803 11.2066 27.162 11.2066Z" fill="white"/>
<path d="M27.162 22.7579H20.6451C20.3268 22.7579 20.0693 22.5004 20.0693 22.1822C20.0693 21.864 20.3268 21.6064 20.6451 21.6064H27.162C27.4803 21.6064 27.7378 21.864 27.7378 22.1822C27.7378 22.5004 27.4803 22.7579 27.162 22.7579Z" fill="white"/>
<path d="M27.162 26.1393H20.6451C20.3268 26.1393 20.0693 25.8818 20.0693 25.5635C20.0693 25.2453 20.3268 24.9878 20.6451 24.9878H27.162C27.4803 24.9878 27.7378 25.2453 27.7378 25.5635C27.7378 25.8818 27.4803 26.1393 27.162 26.1393Z" fill="white"/>
<path d="M13.3444 10.0552H10.6619V7.37273C10.6619 7.0545 10.4044 6.797 10.0862 6.797C9.76798 6.797 9.51047 7.0545 9.51047 7.37273V10.0552H6.82745C6.50922 10.0552 6.25171 10.3127 6.25171 10.6309C6.25171 10.9492 6.50922 11.2067 6.82745 11.2067H9.51047V13.8897C9.51047 14.2079 9.76798 14.4654 10.0862 14.4654C10.4044 14.4654 10.6619 14.2079 10.6619 13.8897V11.2067H13.3444C13.6626 11.2067 13.9201 10.9492 13.9201 10.6309C13.9201 10.3127 13.6626 10.0552 13.3444 10.0552Z" fill="white"/>
<path d="M10.9004 23.9117L12.7974 22.0147C13.0223 21.7898 13.0223 21.4254 12.7974 21.2005C12.5725 20.9756 12.2081 20.9756 11.9832 21.2005L10.0862 23.0975L8.18922 21.2005C7.96432 20.9756 7.59999 20.9756 7.37509 21.2005C7.1502 21.4254 7.1502 21.7898 7.37509 22.0147L9.2721 23.9117L7.37509 25.8087C7.1502 26.0336 7.1502 26.3979 7.37509 26.6228C7.48754 26.7353 7.63485 26.7915 7.78216 26.7915C7.92947 26.7915 8.07677 26.7353 8.18922 26.6228L10.0862 24.7258L11.9832 26.6228C12.0957 26.7353 12.243 26.7915 12.3903 26.7915C12.5376 26.7915 12.6849 26.7353 12.7974 26.6228C13.0223 26.3979 13.0223 26.0336 12.7974 25.8087L10.9004 23.9117Z" fill="white"/>
</svg>
