<svg width="24" height="24" viewBox="0 0 24 24" fill="none" xmlns="http://www.w3.org/2000/svg">
<path d="M11.9963 2.24451V11.9982H2.24268V4.4744C2.24268 3.24286 3.24103 2.24451 4.47257 2.24451H11.9963Z" fill="#CBD9E9"/>
<path d="M21.75 4.4744V11.9982H11.9963V2.24451H19.5201C20.7516 2.24451 21.75 3.24286 21.75 4.4744Z" fill="#EEF0F6"/>
<path d="M11.9963 11.9982V21.76H4.47257C3.24103 21.76 2.24268 20.7616 2.24268 19.5301V11.9982H11.9963Z" fill="#EEF0F6"/>
<path d="M21.75 11.9982V19.5301C21.75 20.7616 20.7516 21.76 19.5201 21.76H11.9963V11.9982H21.75Z" fill="#CBD9E9"/>
<path d="M19.1732 7.91058H14.573C14.3484 7.91058 14.1666 7.72881 14.1666 7.50418C14.1666 7.27955 14.3484 7.09778 14.573 7.09778H19.1732C19.3979 7.09778 19.5796 7.27955 19.5796 7.50418C19.5796 7.72881 19.3979 7.91058 19.1732 7.91058Z" fill="white"/>
<path d="M19.1732 16.0644H14.573C14.3484 16.0644 14.1666 15.8826 14.1666 15.658C14.1666 15.4334 14.3484 15.2516 14.573 15.2516H19.1732C19.3979 15.2516 19.5796 15.4334 19.5796 15.658C19.5796 15.8826 19.3979 16.0644 19.1732 16.0644Z" fill="white"/>
<path d="M19.1732 18.4512H14.573C14.3484 18.4512 14.1666 18.2695 14.1666 18.0448C14.1666 17.8202 14.3484 17.6384 14.573 17.6384H19.1732C19.3979 17.6384 19.5796 17.8202 19.5796 18.0448C19.5796 18.2695 19.3979 18.4512 19.1732 18.4512Z" fill="white"/>
<path d="M9.41957 7.09776H7.52607V5.20425C7.52607 4.97962 7.3443 4.79785 7.11967 4.79785C6.89504 4.79785 6.71327 4.97962 6.71327 5.20425V7.09776H4.81937C4.59473 7.09776 4.41296 7.27953 4.41296 7.50416C4.41296 7.72879 4.59473 7.91056 4.81937 7.91056H6.71327V9.80446C6.71327 10.0291 6.89504 10.2109 7.11967 10.2109C7.3443 10.2109 7.52607 10.0291 7.52607 9.80446V7.91056H9.41957C9.64421 7.91056 9.82598 7.72879 9.82598 7.50416C9.82598 7.27953 9.64421 7.09776 9.41957 7.09776Z" fill="white"/>
<path d="M7.69434 16.8789L9.0334 15.5398C9.19215 15.3811 9.19215 15.1239 9.0334 14.9651C8.87465 14.8064 8.61748 14.8064 8.45872 14.9651L7.11966 16.3042L5.78059 14.9651C5.62184 14.8064 5.36467 14.8064 5.20592 14.9651C5.04717 15.1239 5.04717 15.3811 5.20592 15.5398L6.54498 16.8789L5.20592 18.2179C5.04717 18.3767 5.04717 18.6339 5.20592 18.7926C5.28529 18.872 5.38927 18.9117 5.49326 18.9117C5.59724 18.9117 5.70122 18.872 5.78059 18.7926L7.11966 17.4536L8.45872 18.7926C8.5381 18.872 8.64208 18.9117 8.74606 18.9117C8.85005 18.9117 8.95403 18.872 9.0334 18.7926C9.19215 18.6339 9.19215 18.3767 9.0334 18.2179L7.69434 16.8789Z" fill="white"/>
</svg>
