<svg width="24" height="24" viewBox="0 0 24 24" fill="none" xmlns="http://www.w3.org/2000/svg">
<path d="M19 4.10999H17V5.61999C17.55 5.87999 17.93 6.44999 17.93 7.09999C17.93 8.02999 17.18 8.77998 16.25 8.77998C15.33 8.77998 14.58 8.02999 14.58 7.09999C14.58 6.44999 14.95 5.88999 15.5 5.61999V4.10999H12.75V5.61999C13.3 5.88999 13.67 6.44999 13.67 7.09999C13.67 8.02999 12.92 8.77998 12 8.77998C11.07 8.77998 10.32 8.02999 10.32 7.09999C10.32 6.44999 10.7 5.87999 11.25 5.61999V4.10999H8.5V5.61999C9.05 5.88999 9.42 6.44999 9.42 7.09999C9.42 8.02999 8.67 8.77998 7.75 8.77998C6.82 8.77998 6.07 8.02999 6.07 7.09999C6.07 6.44999 6.45 5.87999 7 5.61999V4.10999H5C3.89 4.10999 3 5.00999 3 6.10999V19C3 20.11 3.89 21 5 21H19C20.1 21 21 20.11 21 19V6.10999C21 5.00999 20.1 4.10999 19 4.10999ZM16.73 17.89H7.27C6.96 17.89 6.7 17.63 6.7 17.32C6.7 17.01 6.96 16.76 7.27 16.76H16.73C17.04 16.76 17.29 17.01 17.29 17.32C17.29 17.63 17.04 17.89 16.73 17.89ZM16.73 15.59H7.27C6.96 15.59 6.7 15.34 6.7 15.03C6.7 14.71 6.96 14.46 7.27 14.46H16.73C17.04 14.46 17.29 14.71 17.29 15.03C17.29 15.34 17.04 15.59 16.73 15.59ZM16.73 13.24H7.27C6.96 13.24 6.7 12.99 6.7 12.68C6.7 12.37 6.96 12.12 7.27 12.12H16.73C17.04 12.12 17.29 12.37 17.29 12.68C17.29 12.99 17.04 13.24 16.73 13.24Z" fill="#CBD9E9"/>
</svg>
