<svg width="34" height="35" viewBox="0 0 34 35" fill="none" xmlns="http://www.w3.org/2000/svg">
<g filter="url(#filter0_d_308_6537)">
<path d="M26.9167 29.75H7.08333C5.525 29.75 4.25 28.475 4.25 26.9167V13.2034H29.75V26.9167C29.75 28.475 28.475 29.75 26.9167 29.75Z" fill="white"/>
</g>
<path d="M29.75 14.79H4.25V8.65584C4.25 7.09751 5.525 5.82251 7.08333 5.82251H26.9167C28.475 5.82251 29.75 7.09751 29.75 8.65584V14.79Z" fill="#76B5F4"/>
<path d="M23.7008 17.17H10.2991C9.85996 17.17 9.5058 17.5242 9.5058 17.9634C9.5058 18.4025 9.85996 18.7567 10.2991 18.7567H23.7008C24.14 18.7567 24.4941 18.4025 24.4941 17.9634C24.4941 17.5242 24.14 17.17 23.7008 17.17Z" fill="black"/>
<path d="M23.7008 20.485H10.2991C9.85996 20.485 9.5058 20.8392 9.5058 21.2783C9.5058 21.7175 9.85996 22.0717 10.2991 22.0717H23.7008C24.14 22.0717 24.4941 21.7175 24.4941 21.2783C24.4941 20.8392 24.14 20.485 23.7008 20.485Z" fill="black"/>
<path d="M23.7008 23.7433H10.2991C9.85996 23.7433 9.5058 24.0975 9.5058 24.5366C9.5058 24.9758 9.85996 25.33 10.2991 25.33H23.7008C24.14 25.33 24.4941 24.9758 24.4941 24.5366C24.4941 24.0975 24.14 23.7433 23.7008 23.7433Z" fill="black"/>
<path d="M10.9792 9.27913C10.3842 9.27913 9.91669 8.79746 9.91669 8.21663V4.85913C9.91669 4.2783 10.3984 3.79663 10.9792 3.79663C11.56 3.79663 12.0417 4.2783 12.0417 4.85913V8.21663C12.0417 8.79746 11.56 9.27913 10.9792 9.27913Z" fill="black"/>
<path d="M17 9.27913C16.4192 9.27913 15.9375 8.79746 15.9375 8.21663V4.85913C15.9375 4.2783 16.4192 3.79663 17 3.79663C17.5808 3.79663 18.0625 4.2783 18.0625 4.85913V8.21663C18.0625 8.79746 17.5808 9.27913 17 9.27913Z" fill="black"/>
<path d="M23.0208 9.27913C22.44 9.27913 21.9583 8.79746 21.9583 8.21663V4.85913C21.9583 4.2783 22.44 3.79663 23.0208 3.79663C23.6016 3.79663 24.0833 4.2783 24.0833 4.85913V8.21663C24.0833 8.79746 23.6158 9.27913 23.0208 9.27913Z" fill="black"/>
<path d="M10.9791 12.4383C12.2936 12.4383 13.3591 11.3728 13.3591 10.0583C13.3591 8.74391 12.2936 7.67834 10.9791 7.67834C9.66468 7.67834 8.59912 8.74391 8.59912 10.0583C8.59912 11.3728 9.66468 12.4383 10.9791 12.4383Z" fill="black"/>
<path d="M17 12.4383C18.3144 12.4383 19.38 11.3728 19.38 10.0583C19.38 8.74391 18.3144 7.67834 17 7.67834C15.6856 7.67834 14.62 8.74391 14.62 10.0583C14.62 11.3728 15.6856 12.4383 17 12.4383Z" fill="black"/>
<path d="M23.0208 12.4383C24.3352 12.4383 25.4008 11.3728 25.4008 10.0583C25.4008 8.74391 24.3352 7.67834 23.0208 7.67834C21.7064 7.67834 20.6408 8.74391 20.6408 10.0583C20.6408 11.3728 21.7064 12.4383 23.0208 12.4383Z" fill="black"/>
<defs>
<filter id="filter0_d_308_6537" x="0.25" y="10.2034" width="33.5" height="24.5466" filterUnits="userSpaceOnUse" color-interpolation-filters="sRGB">
<feFlood flood-opacity="0" result="BackgroundImageFix"/>
<feColorMatrix in="SourceAlpha" type="matrix" values="0 0 0 0 0 0 0 0 0 0 0 0 0 0 0 0 0 0 127 0" result="hardAlpha"/>
<feOffset dy="1"/>
<feGaussianBlur stdDeviation="2"/>
<feComposite in2="hardAlpha" operator="out"/>
<feColorMatrix type="matrix" values="0 0 0 0 0 0 0 0 0 0 0 0 0 0 0 0 0 0 0.1 0"/>
<feBlend mode="normal" in2="BackgroundImageFix" result="effect1_dropShadow_308_6537"/>
<feBlend mode="normal" in="SourceGraphic" in2="effect1_dropShadow_308_6537" result="shape"/>
</filter>
</defs>
</svg>
