<svg width="24" height="24" viewBox="0 0 24 24" fill="none" xmlns="http://www.w3.org/2000/svg">
<path d="M20.4654 10.7136L19.4263 9.67449C19.0866 9.33478 18.8967 8.86517 18.8967 8.38557V6.91679C18.8967 5.90763 18.0774 5.09831 17.0783 5.09831H15.6095C15.1199 5.09831 14.6603 4.90847 14.3206 4.56875L13.2814 3.52962C12.572 2.82021 11.423 2.82021 10.7136 3.52962L9.67443 4.56875C9.33472 4.90847 8.86511 5.09831 8.38551 5.09831H6.91673C5.91756 5.09831 5.09825 5.91763 5.09825 6.91679V8.38557C5.09825 8.86517 4.90841 9.32479 4.56869 9.67449L3.52955 10.7136C2.82015 11.423 2.82015 12.5721 3.52955 13.2815L4.56869 14.3206C4.90841 14.6603 5.09825 15.1299 5.09825 15.6095V17.0783C5.09825 18.0875 5.91756 18.8968 6.91673 18.8968H8.38551C8.8751 18.8968 9.33472 19.0867 9.67443 19.4264L10.7136 20.4655C11.423 21.1749 12.572 21.1749 13.2814 20.4655L14.3206 19.4264C14.6603 19.0867 15.1299 18.8968 15.6095 18.8968H17.0783C18.0874 18.8968 18.8967 18.0775 18.8967 17.0783V15.6095C18.8967 15.12 19.0866 14.6603 19.4263 14.3206L20.4654 13.2815C21.1749 12.5721 21.1749 11.423 20.4654 10.7136ZM11.9925 15.05C10.3039 15.05 8.93505 13.6812 8.93505 11.9926C8.93505 10.304 10.3039 8.93511 11.9925 8.93511C13.6811 8.93511 15.05 10.304 15.05 11.9926C15.05 13.6812 13.6811 15.05 11.9925 15.05Z" fill="#CBD9E9"/>
</svg>
