<svg width="34" height="35" viewBox="0 0 34 35" fill="none" xmlns="http://www.w3.org/2000/svg">
<g filter="url(#filter0_d_308_6645)">
<path d="M28.9963 15.1811L27.5241 13.709C27.0429 13.2277 26.7739 12.5624 26.7739 11.883V9.80225C26.7739 8.37261 25.6132 7.22606 24.1978 7.22606H22.117C21.4234 7.22606 20.7723 6.95712 20.291 6.47585L18.8189 5.00375C17.8139 3.99875 16.1861 3.99875 15.1811 5.00375L13.709 6.47585C13.2277 6.95712 12.5624 7.22606 11.883 7.22606H9.80225C8.38676 7.22606 7.22606 8.38676 7.22606 9.80225V11.883C7.22606 12.5624 6.95712 13.2136 6.47585 13.709L5.00375 15.1811C3.99875 16.1861 3.99875 17.8139 5.00375 18.8189L6.47585 20.291C6.95712 20.7723 7.22606 21.4376 7.22606 22.117V24.1978C7.22606 25.6274 8.38676 26.7739 9.80225 26.7739H11.883C12.5766 26.7739 13.2277 27.0429 13.709 27.5241L15.1811 28.9963C16.1861 30.0012 17.8139 30.0012 18.8189 28.9963L20.291 27.5241C20.7723 27.0429 21.4376 26.7739 22.117 26.7739H24.1978C25.6274 26.7739 26.7739 25.6132 26.7739 24.1978V22.117C26.7739 21.4234 27.0429 20.7723 27.5241 20.291L28.9963 18.8189C30.0012 17.8139 30.0012 16.1861 28.9963 15.1811ZM16.9929 21.3243C14.6007 21.3243 12.6615 19.3851 12.6615 16.9929C12.6615 14.6007 14.6007 12.6615 16.9929 12.6615C19.3851 12.6615 21.3243 14.6007 21.3243 16.9929C21.3243 19.3851 19.3851 21.3243 16.9929 21.3243Z" fill="white"/>
</g>
<defs>
<filter id="filter0_d_308_6645" x="0.25" y="1.25" width="33.5" height="33.5" filterUnits="userSpaceOnUse" color-interpolation-filters="sRGB">
<feFlood flood-opacity="0" result="BackgroundImageFix"/>
<feColorMatrix in="SourceAlpha" type="matrix" values="0 0 0 0 0 0 0 0 0 0 0 0 0 0 0 0 0 0 127 0" result="hardAlpha"/>
<feOffset dy="1"/>
<feGaussianBlur stdDeviation="2"/>
<feComposite in2="hardAlpha" operator="out"/>
<feColorMatrix type="matrix" values="0 0 0 0 0 0 0 0 0 0 0 0 0 0 0 0 0 0 0.1 0"/>
<feBlend mode="normal" in2="BackgroundImageFix" result="effect1_dropShadow_308_6645"/>
<feBlend mode="normal" in="SourceGraphic" in2="effect1_dropShadow_308_6645" result="shape"/>
</filter>
</defs>
</svg>
