<svg width="24" height="24" viewBox="0 0 24 24" fill="none" xmlns="http://www.w3.org/2000/svg">
<path d="M21.13 13.8C21.37 18.04 18.5 21.85 14.6 23.03L14.8 22.83C14.8 22.83 18.15 16.82 12.07 12.44C6 16.82 9.35 22.83 9.35 22.83L9.58 23.06C5.77 21.98 3 18.48 3 14.35C3 12.5 3.55 10.76 4.51 9.31999C4.71 9.06999 4.9 8.79999 5.1 8.55999C7.83 4.82999 9.1 2.34999 9.69 0.889995C10.04 -5.24521e-06 11.16 -0.300005 11.88 0.349995C13.37 1.70999 14.57 3.71999 14.57 3.71999C14.57 3.71999 15.28 4.56999 15.76 6.03999C15.84 6.27999 15.91 6.52999 15.95 6.79999C16.15 7.60999 16.23 8.58999 16.08 9.66999C16.08 9.66999 16.45 9.41999 16.79 8.77999C17.23 7.93999 18.44 7.81999 19.04 8.53999C20.24 9.98999 21.01 11.8 21.13 13.8Z" fill="#F25168"/>
<path d="M14.7999 22.83L14.5999 23.03C13.8399 23.27 13.0299 23.4 12.1999 23.42H12.0699C11.1999 23.42 10.3599 23.3 9.57991 23.06L9.34991 22.83C9.34991 22.83 5.99991 16.82 12.0699 12.44C18.1499 16.82 14.7999 22.83 14.7999 22.83Z" fill="#F29A0C"/>
</svg>
