<svg width="24" height="24" viewBox="0 0 24 24" fill="none" xmlns="http://www.w3.org/2000/svg">
<path fill-rule="evenodd" clip-rule="evenodd" d="M19.47 13.5301C19.47 17.6556 16.1255 21.0001 12 21.0001C7.8744 21.0001 4.52997 17.6556 4.52997 13.5301C4.52997 9.40449 7.8744 6.06006 12 6.06006C16.1255 6.06006 19.47 9.40449 19.47 13.5301ZM12.56 13.2901L15.81 14.3701C16.1 14.4801 16.26 14.8001 16.16 15.0801C16.05 15.3701 15.73 15.5301 15.44 15.4301L12.56 14.4701L11.43 14.0801V12.8901V9.25005C11.43 8.93005 11.69 8.68005 12 8.68005C12.31 8.68005 12.56 8.93005 12.56 9.25005V13.2901Z" fill="#CBD9E9"/>
<path d="M20.7226 8.30507C21.3865 7.64119 20.8071 5.98548 19.4286 4.60694C18.05 3.2284 16.3943 2.64906 15.7305 3.31295C15.0666 3.97683 15.6459 5.63254 17.0244 7.01108C18.403 8.38961 20.0587 8.96896 20.7226 8.30507Z" fill="#CBD9E9"/>
<path d="M6.97036 7.01525C8.3489 5.63672 8.92824 3.98101 8.26436 3.31712C7.60047 2.65324 5.94476 3.23258 4.56622 4.61112C3.18769 5.98965 2.60834 7.64536 3.27223 8.30925C3.93611 8.97313 5.59183 8.39379 6.97036 7.01525Z" fill="#CBD9E9"/>
</svg>
