<svg width="60" height="60" viewBox="0 0 60 60" fill="none" xmlns="http://www.w3.org/2000/svg">
<path d="M52.5 15V33.75C52.5 33.9375 52.5 34.125 52.4813 34.3125C52.2 44.25 44.175 52.2562 34.2 52.5H15C10.875 52.5 7.5 49.1437 7.5 45V15C7.5 10.8562 10.875 7.5 15 7.5H45C49.1437 7.5 52.5 10.8562 52.5 15Z" fill="#76B5F4"/>
<path d="M52.4812 34.3125C52.2 44.25 44.175 52.2563 34.2 52.5V42.5625C34.2 38.0063 37.8937 34.3125 42.45 34.3125H52.4812Z" fill="#3F8FEA"/>
<path d="M25.2374 25.8188H24.3186C23.7936 25.8188 23.3811 25.4063 23.3811 24.8813V19.8188C23.3811 19.2938 23.7936 18.8813 24.3186 18.8813H25.2374C25.7624 18.8813 26.1749 19.2938 26.1749 19.8188V24.8813C26.1749 25.3875 25.7624 25.8188 25.2374 25.8188Z" fill="white"/>
<path d="M34.7627 25.8188H35.6814C36.2064 25.8188 36.6189 25.4063 36.6189 24.8813V19.8188C36.6189 19.2938 36.2064 18.8813 35.6814 18.8813H34.7627C34.2377 18.8813 33.8252 19.2938 33.8252 19.8188V24.8813C33.8252 25.3875 34.2377 25.8188 34.7627 25.8188Z" fill="white"/>
<path d="M36.6562 29.5688C36.6562 32.1938 33.675 34.3125 30 34.3125C26.325 34.3125 23.3438 32.1938 23.3438 29.5688H36.6562Z" fill="white"/>
</svg>
