<svg width="24" height="24" viewBox="0 0 24 24" fill="none" xmlns="http://www.w3.org/2000/svg">
<path d="M19.3583 5.06267H9.4L9.39167 5.07878H9.34167L6.875 3H3.775C2.8 3 2 3.76544 2 4.7162V5.23993V10.7833V13.1764V14.6186V18.4458C2 19.8639 3.19167 21 4.64167 21H19.3667C20.8333 21 22.0083 19.8639 22.0083 18.4458V7.61683C22 6.19875 20.825 5.06267 19.3583 5.06267Z" fill="#76B5F4"/>
<path d="M16.3565 12H8.64596C8.28809 12 8.00342 11.7785 8.00342 11.5C8.00342 11.2215 8.28809 11 8.64596 11H16.3646C16.7225 11 17.0072 11.2215 17.0072 11.5C16.999 11.7722 16.7144 12 16.3565 12Z" fill="white"/>
<path d="M13.3782 15H8.62328C8.27804 15 8.00342 14.7785 8.00342 14.5C8.00342 14.2215 8.27804 14 8.62328 14H13.3861C13.7313 14 14.0059 14.2215 14.0059 14.5C13.9981 14.7785 13.7234 15 13.3782 15Z" fill="white"/>
</svg>
